<svg width="42" height="39" viewBox="0 0 42 39" fill="none" xmlns="http://www.w3.org/2000/svg">
<path d="M41.954 19.1459C41.954 19.9942 41.5885 20.8077 40.9378 21.4075C40.2871 22.0073 39.4047 22.3443 38.4845 22.3443H24.5022V35.2374C24.4628 36.0604 24.0804 36.8378 23.4347 37.4074C22.789 37.9769 21.9298 38.2949 21.0361 38.2949C20.1424 38.2949 19.2832 37.9769 18.6374 37.4074C17.9917 36.8378 17.6094 36.0604 17.57 35.2374V22.3443H3.57756C3.11307 22.3577 2.65041 22.2848 2.21703 22.1302C1.78365 21.9755 1.38839 21.7422 1.0547 21.444C0.721021 21.1458 0.455716 20.7889 0.274538 20.3944C0.0933597 19.9999 0 19.5758 0 19.1474C0 18.719 0.0933597 18.295 0.274538 17.9005C0.455716 17.506 0.721021 17.149 1.0547 16.8508C1.38839 16.5527 1.78365 16.3193 2.21703 16.1647C2.65041 16.01 3.11307 15.9372 3.57756 15.9506H17.5666V3.05752C17.606 2.23444 17.9884 1.45711 18.6341 0.887515C19.2798 0.317922 20.139 0 21.0327 0C21.9264 0 22.7857 0.317922 23.4314 0.887515C24.0771 1.45711 24.4595 2.23444 24.4988 3.05752V15.9506H38.4879C39.4075 15.9514 40.2891 16.2887 40.939 16.8885C41.5889 17.4882 41.954 18.2981 41.954 19.1459Z" fill="black"/>
</svg>
