<svg xmlns="http://www.w3.org/2000/svg" xmlns:xlink="http://www.w3.org/1999/xlink" width="1052" zoomAndPan="magnify" viewBox="0 0 788.88 408.749985" height="545" preserveAspectRatio="xMidYMid meet" version="1.0"><defs><clipPath id="9437e98f4d"><path d="M 16.414062 17.898438 L 773 17.898438 L 773 390.601562 L 16.414062 390.601562 Z M 16.414062 17.898438 " clip-rule="nonzero"/></clipPath><clipPath id="da641c4f7a"><path d="M 45.644531 17.898438 L 743.234375 17.898438 C 759.378906 17.898438 772.46875 30.984375 772.46875 47.128906 L 772.46875 361.371094 C 772.46875 377.515625 759.378906 390.601562 743.234375 390.601562 L 45.644531 390.601562 C 29.5 390.601562 16.414062 377.515625 16.414062 361.371094 L 16.414062 47.128906 C 16.414062 30.984375 29.5 17.898438 45.644531 17.898438 Z M 45.644531 17.898438 " clip-rule="nonzero"/></clipPath><clipPath id="3e383fa6fe"><path d="M 16.417969 17.898438 L 772.699219 17.898438 L 772.699219 390.421875 L 16.417969 390.421875 Z M 16.417969 17.898438 " clip-rule="nonzero"/></clipPath><clipPath id="d24c1ba94e"><path d="M 45.648438 17.898438 L 743.230469 17.898438 C 759.375 17.898438 772.460938 30.984375 772.460938 47.128906 L 772.460938 361.363281 C 772.460938 377.507812 759.375 390.597656 743.230469 390.597656 L 45.648438 390.597656 C 29.503906 390.597656 16.417969 377.507812 16.417969 361.363281 L 16.417969 47.128906 C 16.417969 30.984375 29.503906 17.898438 45.648438 17.898438 Z M 45.648438 17.898438 " clip-rule="nonzero"/></clipPath><clipPath id="2eaadb05ab"><path d="M 210.050781 213 L 297 213 L 297 296 L 210.050781 296 Z M 210.050781 213 " clip-rule="nonzero"/></clipPath><clipPath id="5c77829fbc"><path d="M 80.757812 32.355469 L 168 32.355469 L 168 116 L 80.757812 116 Z M 80.757812 32.355469 " clip-rule="nonzero"/></clipPath><clipPath id="164cbd17fd"><path d="M 209.300781 32.355469 L 297 32.355469 L 297 116 L 209.300781 116 Z M 209.300781 32.355469 " clip-rule="nonzero"/></clipPath><clipPath id="eb7ebf89fe"><path d="M 81.507812 213 L 169 213 L 169 296 L 81.507812 296 Z M 81.507812 213 " clip-rule="nonzero"/></clipPath><clipPath id="4a2d06ac06"><path d="M 372.15625 122.550781 L 535.554688 122.550781 L 535.554688 285.949219 L 372.15625 285.949219 Z M 372.15625 122.550781 " clip-rule="nonzero"/></clipPath><clipPath id="cf48622942"><path d="M 569.871094 213 L 657 213 L 657 296 L 569.871094 296 Z M 569.871094 213 " clip-rule="nonzero"/></clipPath><clipPath id="1e9e0b9d7b"><path d="M 569.121094 32.355469 L 657 32.355469 L 657 116 L 569.121094 116 Z M 569.121094 32.355469 " clip-rule="nonzero"/></clipPath></defs><g clip-path="url(#9437e98f4d)"><g clip-path="url(#da641c4f7a)"><path fill="#fef8d6" d="M 16.414062 17.898438 L 772.011719 17.898438 L 772.011719 390.601562 L 16.414062 390.601562 Z M 16.414062 17.898438 " fill-opacity="1" fill-rule="nonzero"/></g></g><g clip-path="url(#3e383fa6fe)"><g clip-path="url(#d24c1ba94e)"><path stroke-linecap="butt" transform="matrix(0.749542, 0, 0, 0.749542, 16.417395, 17.898466)" fill="none" stroke-linejoin="miter" d="M 38.998564 -0.0000375824 L 969.676886 -0.0000375824 C 991.216096 -0.0000375824 1008.674685 17.458552 1008.674685 38.997761 L 1008.674685 458.233217 C 1008.674685 479.772426 991.216096 497.236228 969.676886 497.236228 L 38.998564 497.236228 C 17.459354 497.236228 0.000764818 479.772426 0.000764818 458.233217 L 0.000764818 38.997761 C 0.000764818 17.458552 17.459354 -0.0000375824 38.998564 -0.0000375824 Z M 38.998564 -0.0000375824 " stroke="#ee9455" stroke-width="14" stroke-opacity="1" stroke-miterlimit="4"/></g></g><g clip-path="url(#2eaadb05ab)"><path fill="#5c913b" d="M 277.410156 253.402344 C 276.183594 238.769531 287 232.515625 287 232.515625 C 272.863281 233.015625 265.371094 245.023438 265.371094 245.023438 C 262.046875 239.269531 269.550781 227.265625 274.957031 224.136719 C 260.824219 224.636719 258.738281 233.519531 258.738281 233.519531 C 252.09375 222.007812 254.183594 213.132812 254.183594 213.132812 C 249.230469 215.996094 246.375 222.484375 244.722656 228.675781 L 234.476562 216.859375 C 233.460938 221.476562 235.171875 230.90625 237.007812 238.804688 C 223.507812 230.882812 210.917969 238.140625 210.917969 238.140625 C 228.378906 243.398438 235.007812 254.90625 235.007812 254.90625 C 235.007812 254.90625 217.558594 249.652344 210.054688 261.65625 C 221.53125 261.25 229.941406 263.867188 235.933594 267.101562 C 230.796875 268.378906 222.035156 266.058594 216.6875 273.167969 C 216.6875 273.167969 230.820312 272.667969 233.707031 277.835938 C 224.109375 280.554688 217.90625 287.800781 217.90625 287.800781 C 237.449219 284.179688 258.226562 295.1875 258.226562 295.1875 L 285.273438 279.554688 C 280.722656 259.167969 296.949219 249.785156 296.949219 249.785156 C 284.910156 241.398438 277.410156 253.402344 277.410156 253.402344 Z M 277.410156 253.402344 " fill-opacity="1" fill-rule="nonzero"/></g><path fill="#ffac33" d="M 327.4375 312.03125 C 338.433594 331.097656 332.820312 354.957031 314.898438 365.316406 C 296.976562 375.679688 273.535156 368.621094 262.542969 349.554688 L 255.519531 337.371094 C 244.523438 318.296875 250.140625 294.445312 268.058594 284.085938 C 285.980469 273.726562 309.421875 280.78125 320.414062 299.851562 Z M 327.4375 312.03125 " fill-opacity="1" fill-rule="nonzero"/><path fill="#ffcc4d" d="M 331.863281 323.023438 C 330.941406 319.269531 329.476562 315.566406 327.4375 312.03125 L 326.613281 310.601562 L 326.613281 310.605469 L 317.992188 306.941406 L 320.75 300.429688 L 320.417969 299.851562 C 311.46875 284.316406 294.253906 276.761719 278.492188 280.085938 L 274.878906 288.609375 L 266.550781 285.070312 C 252.054688 294.460938 246.367188 313.035156 252.132812 329.890625 L 256.578125 331.78125 L 254.808594 335.96875 C 255.050781 336.433594 255.257812 336.90625 255.527344 337.363281 L 262.550781 349.546875 C 265.578125 354.796875 269.578125 359.105469 274.121094 362.417969 L 275.132812 360.039062 L 283.757812 363.703125 L 282.324219 367.082031 C 285.261719 368.308594 288.320312 369.140625 291.433594 369.613281 L 292.382812 367.371094 L 298.585938 370.003906 C 303.640625 369.792969 308.660156 368.519531 313.359375 366.097656 L 313.285156 366.066406 L 316.945312 357.429688 L 322.199219 359.660156 C 324.507812 357.355469 326.5 354.777344 328.09375 351.980469 L 320.613281 348.792969 L 324.273438 340.160156 L 331.640625 343.289062 C 332.484375 340.191406 332.96875 336.972656 333.035156 333.695312 L 327.929688 331.527344 L 331.589844 322.894531 Z M 304.410156 290.96875 L 313.027344 294.636719 L 309.367188 303.265625 L 300.746094 299.601562 Z M 305.710938 311.90625 L 302.050781 320.535156 L 293.425781 316.875 L 297.085938 308.242188 Z M 287.160156 283.640625 L 295.78125 287.304688 L 292.117188 295.941406 L 283.496094 292.277344 Z M 279.839844 300.90625 L 288.464844 304.574219 L 284.804688 313.207031 L 276.183594 309.542969 Z M 262.59375 293.582031 L 271.214844 297.25 L 267.554688 305.875 L 258.933594 302.210938 Z M 251.617188 319.488281 L 255.277344 310.847656 L 263.898438 314.511719 L 260.234375 323.152344 Z M 270.160156 347.742188 L 261.539062 344.085938 L 265.199219 335.449219 L 273.820312 339.113281 Z M 268.859375 326.8125 L 272.523438 318.175781 L 281.144531 321.835938 L 277.480469 330.476562 Z M 287.402344 355.074219 L 278.785156 351.410156 L 282.445312 342.777344 L 291.0625 346.449219 Z M 286.101562 334.140625 L 289.761719 325.5 L 298.386719 329.167969 L 294.726562 337.808594 Z M 304.652344 362.410156 L 296.03125 358.746094 L 299.691406 350.113281 L 308.3125 353.777344 Z M 311.976562 345.132812 L 303.359375 341.472656 L 307.015625 332.835938 L 315.636719 336.5 Z M 319.296875 327.867188 L 310.671875 324.203125 L 314.332031 315.574219 L 322.953125 319.234375 Z M 319.296875 327.867188 " fill-opacity="1" fill-rule="nonzero"/><g clip-path="url(#5c77829fbc)"><path fill="#5c913b" d="M 148.121094 73.265625 C 146.894531 58.628906 157.710938 52.375 157.710938 52.375 C 143.574219 52.875 136.082031 64.882812 136.082031 64.882812 C 132.757812 59.128906 140.261719 47.128906 145.667969 44 C 131.53125 44.5 129.445312 53.378906 129.445312 53.378906 C 122.804688 41.871094 124.894531 32.992188 124.894531 32.992188 C 119.941406 35.855469 117.085938 42.34375 115.433594 48.535156 L 105.1875 36.71875 C 104.171875 41.339844 105.882812 50.765625 107.71875 58.664062 C 94.21875 50.742188 81.628906 58 81.628906 58 C 99.089844 63.257812 105.71875 74.765625 105.71875 74.765625 C 105.71875 74.765625 88.269531 69.511719 80.765625 81.519531 C 92.242188 81.109375 100.652344 83.726562 106.644531 86.960938 C 101.503906 88.242188 92.746094 85.917969 87.398438 93.027344 C 87.398438 93.027344 101.53125 92.527344 104.417969 97.699219 C 94.820312 100.414062 88.617188 107.660156 88.617188 107.660156 C 108.160156 104.039062 128.9375 115.046875 128.9375 115.046875 L 155.984375 99.414062 C 151.433594 79.027344 167.660156 69.644531 167.660156 69.644531 C 155.621094 61.257812 148.121094 73.265625 148.121094 73.265625 Z M 148.121094 73.265625 " fill-opacity="1" fill-rule="nonzero"/></g><path fill="#ffac33" d="M 198.148438 131.890625 C 209.144531 150.960938 203.53125 174.816406 185.609375 185.179688 C 167.6875 195.539062 144.246094 188.480469 133.253906 169.414062 L 126.230469 157.230469 C 115.234375 138.15625 120.851562 114.308594 138.769531 103.945312 C 156.691406 93.585938 180.132812 100.640625 191.125 119.710938 Z M 198.148438 131.890625 " fill-opacity="1" fill-rule="nonzero"/><path fill="#ffcc4d" d="M 202.574219 142.882812 C 201.652344 139.128906 200.1875 135.425781 198.148438 131.890625 L 197.324219 130.460938 L 197.324219 130.464844 L 188.703125 126.800781 L 191.460938 120.289062 L 191.128906 119.710938 C 182.179688 104.175781 164.964844 96.621094 149.203125 99.945312 L 145.585938 108.46875 L 137.261719 104.929688 C 122.765625 114.320312 117.078125 132.894531 122.84375 149.75 L 127.289062 151.640625 L 125.519531 155.828125 C 125.761719 156.292969 125.96875 156.765625 126.238281 157.222656 L 133.261719 169.40625 C 136.289062 174.660156 140.289062 178.964844 144.832031 182.28125 L 145.84375 179.898438 L 154.46875 183.5625 L 153.035156 186.945312 C 155.972656 188.171875 159.03125 189.003906 162.144531 189.476562 L 163.09375 187.230469 L 169.296875 189.863281 C 174.351562 189.652344 179.371094 188.378906 184.070312 185.957031 L 183.996094 185.925781 L 187.65625 177.292969 L 192.910156 179.523438 C 195.214844 177.21875 197.210938 174.636719 198.804688 171.839844 L 191.324219 168.652344 L 194.984375 160.019531 L 202.351562 163.148438 C 203.195312 160.050781 203.679688 156.832031 203.746094 153.558594 L 198.640625 151.390625 L 202.300781 142.753906 Z M 175.121094 110.828125 L 183.738281 114.496094 L 180.078125 123.128906 L 171.457031 119.464844 Z M 176.417969 131.765625 L 172.761719 140.394531 L 164.136719 136.734375 L 167.796875 128.101562 Z M 157.871094 103.5 L 166.492188 107.164062 L 162.828125 115.804688 L 154.207031 112.140625 Z M 150.550781 120.769531 L 159.175781 124.433594 L 155.515625 133.066406 L 146.894531 129.402344 Z M 133.304688 113.445312 L 141.925781 117.109375 L 138.265625 125.734375 L 129.644531 122.070312 Z M 122.328125 139.347656 L 125.988281 130.707031 L 134.609375 134.371094 L 130.945312 143.011719 Z M 140.871094 167.605469 L 132.25 163.945312 L 135.910156 155.308594 L 144.53125 158.976562 Z M 139.566406 146.671875 L 143.230469 138.039062 L 151.855469 141.695312 L 148.191406 150.335938 Z M 158.113281 174.933594 L 149.496094 171.269531 L 153.15625 162.640625 L 161.773438 166.308594 Z M 156.8125 154 L 160.472656 145.363281 L 169.097656 149.03125 L 165.4375 157.667969 Z M 175.363281 182.269531 L 166.742188 178.605469 L 170.398438 169.972656 L 179.023438 173.636719 Z M 182.6875 164.992188 L 174.070312 161.332031 L 177.726562 152.695312 L 186.347656 156.359375 Z M 190.007812 147.730469 L 181.382812 144.066406 L 185.042969 135.433594 L 193.664062 139.09375 Z M 190.007812 147.730469 " fill-opacity="1" fill-rule="nonzero"/><g clip-path="url(#164cbd17fd)"><path fill="#5c913b" d="M 276.660156 73.265625 C 275.4375 58.628906 286.25 52.375 286.25 52.375 C 272.113281 52.875 264.621094 64.882812 264.621094 64.882812 C 261.296875 59.128906 268.800781 47.128906 274.207031 44 C 260.074219 44.5 257.988281 53.378906 257.988281 53.378906 C 251.34375 41.871094 253.433594 32.992188 253.433594 32.992188 C 248.480469 35.855469 245.625 42.34375 243.972656 48.535156 L 233.726562 36.71875 C 232.710938 41.339844 234.421875 50.765625 236.257812 58.664062 C 222.757812 50.742188 210.171875 58 210.171875 58 C 227.628906 63.257812 234.257812 74.765625 234.257812 74.765625 C 234.257812 74.765625 216.808594 69.511719 209.304688 81.519531 C 220.78125 81.109375 229.191406 83.726562 235.1875 86.960938 C 230.046875 88.242188 221.285156 85.917969 215.9375 93.027344 C 215.9375 93.027344 230.070312 92.527344 232.957031 97.699219 C 223.359375 100.414062 217.15625 107.660156 217.15625 107.660156 C 236.703125 104.039062 257.480469 115.046875 257.480469 115.046875 L 284.523438 99.414062 C 279.976562 79.027344 296.199219 69.644531 296.199219 69.644531 C 284.160156 61.257812 276.660156 73.265625 276.660156 73.265625 Z M 276.660156 73.265625 " fill-opacity="1" fill-rule="nonzero"/></g><path fill="#ffac33" d="M 326.6875 131.890625 C 337.683594 150.960938 332.070312 174.816406 314.148438 185.179688 C 296.226562 195.539062 272.785156 188.480469 261.792969 169.414062 L 254.769531 157.230469 C 243.773438 138.15625 249.390625 114.308594 267.308594 103.945312 C 285.230469 93.585938 308.671875 100.640625 319.664062 119.710938 Z M 326.6875 131.890625 " fill-opacity="1" fill-rule="nonzero"/><path fill="#ffcc4d" d="M 331.117188 142.882812 C 330.191406 139.128906 328.730469 135.425781 326.6875 131.890625 L 325.863281 130.460938 L 325.863281 130.464844 L 317.242188 126.800781 L 320 120.289062 L 319.667969 119.710938 C 310.71875 104.175781 293.503906 96.621094 277.742188 99.945312 L 274.128906 108.46875 L 265.800781 104.929688 C 251.304688 114.320312 245.617188 132.894531 251.382812 149.75 L 255.832031 151.640625 L 254.058594 155.828125 C 254.300781 156.292969 254.507812 156.765625 254.777344 157.222656 L 261.800781 169.40625 C 264.828125 174.660156 268.828125 178.964844 273.371094 182.28125 L 274.382812 179.898438 L 283.007812 183.5625 L 281.574219 186.945312 C 284.515625 188.171875 287.574219 189.003906 290.683594 189.476562 L 291.632812 187.230469 L 297.835938 189.863281 C 302.890625 189.652344 307.910156 188.378906 312.609375 185.957031 L 312.535156 185.925781 L 316.195312 177.292969 L 321.449219 179.523438 C 323.757812 177.21875 325.75 174.636719 327.34375 171.839844 L 319.863281 168.652344 L 323.523438 160.019531 L 330.890625 163.148438 C 331.734375 160.050781 332.21875 156.832031 332.285156 153.558594 L 327.183594 151.390625 L 330.839844 142.753906 Z M 303.660156 110.828125 L 312.277344 114.496094 L 308.621094 123.128906 L 299.996094 119.464844 Z M 304.960938 131.765625 L 301.300781 140.394531 L 292.675781 136.734375 L 296.335938 128.101562 Z M 286.410156 103.5 L 295.03125 107.164062 L 291.367188 115.804688 L 282.746094 112.140625 Z M 279.089844 120.769531 L 287.714844 124.433594 L 284.054688 133.066406 L 275.4375 129.402344 Z M 261.84375 113.445312 L 270.464844 117.109375 L 266.804688 125.734375 L 258.1875 122.070312 Z M 250.867188 139.347656 L 254.527344 130.707031 L 263.148438 134.371094 L 259.484375 143.011719 Z M 269.410156 167.605469 L 260.789062 163.945312 L 264.449219 155.308594 L 273.070312 158.976562 Z M 268.109375 146.671875 L 271.773438 138.039062 L 280.394531 141.695312 L 276.730469 150.335938 Z M 286.652344 174.933594 L 278.035156 171.269531 L 281.695312 162.640625 L 290.3125 166.308594 Z M 285.355469 154 L 289.011719 145.363281 L 297.636719 149.03125 L 293.976562 157.667969 Z M 303.902344 182.269531 L 295.28125 178.605469 L 298.941406 169.972656 L 307.5625 173.636719 Z M 311.226562 164.992188 L 302.609375 161.332031 L 306.269531 152.695312 L 314.886719 156.359375 Z M 318.546875 147.730469 L 309.921875 144.066406 L 313.582031 135.433594 L 322.207031 139.09375 Z M 318.546875 147.730469 " fill-opacity="1" fill-rule="nonzero"/><g clip-path="url(#eb7ebf89fe)"><path fill="#5c913b" d="M 148.871094 253.402344 C 147.644531 238.769531 158.460938 232.515625 158.460938 232.515625 C 144.320312 233.015625 136.832031 245.023438 136.832031 245.023438 C 133.507812 239.269531 141.011719 227.265625 146.417969 224.136719 C 132.28125 224.636719 130.195312 233.519531 130.195312 233.519531 C 123.554688 222.007812 125.644531 213.132812 125.644531 213.132812 C 120.691406 215.996094 117.835938 222.484375 116.179688 228.675781 L 105.9375 216.859375 C 104.921875 221.476562 106.628906 230.90625 108.46875 238.804688 C 94.96875 230.882812 82.378906 238.140625 82.378906 238.140625 C 99.835938 243.398438 106.46875 254.90625 106.46875 254.90625 C 106.46875 254.90625 89.019531 249.652344 81.511719 261.65625 C 92.992188 261.25 101.402344 263.867188 107.394531 267.101562 C 102.253906 268.378906 93.496094 266.058594 88.148438 273.167969 C 88.148438 273.167969 102.28125 272.667969 105.167969 277.835938 C 95.566406 280.554688 89.367188 287.800781 89.367188 287.800781 C 108.910156 284.179688 129.6875 295.1875 129.6875 295.1875 L 156.730469 279.554688 C 152.183594 259.167969 168.410156 249.785156 168.410156 249.785156 C 156.371094 241.398438 148.871094 253.402344 148.871094 253.402344 Z M 148.871094 253.402344 " fill-opacity="1" fill-rule="nonzero"/></g><path fill="#ffac33" d="M 198.894531 312.03125 C 209.894531 331.097656 204.28125 354.957031 186.359375 365.316406 C 168.4375 375.679688 144.992188 368.621094 134 349.554688 L 126.980469 337.371094 C 115.984375 318.296875 121.601562 294.445312 139.519531 284.085938 C 157.441406 273.726562 180.882812 280.78125 191.875 299.851562 Z M 198.894531 312.03125 " fill-opacity="1" fill-rule="nonzero"/><path fill="#ffcc4d" d="M 203.324219 323.023438 C 202.402344 319.269531 200.9375 315.566406 198.894531 312.03125 L 198.074219 310.601562 L 198.074219 310.605469 L 189.453125 306.941406 L 192.210938 300.429688 L 191.878906 299.851562 C 182.929688 284.316406 165.714844 276.761719 149.953125 280.085938 L 146.335938 288.609375 L 138.011719 285.070312 C 123.515625 294.460938 117.824219 313.035156 123.59375 329.890625 L 128.039062 331.78125 L 126.265625 335.96875 C 126.511719 336.433594 126.71875 336.90625 126.988281 337.363281 L 134.011719 349.546875 C 137.039062 354.796875 141.039062 359.105469 145.582031 362.417969 L 146.59375 360.039062 L 155.214844 363.703125 L 153.785156 367.082031 C 156.722656 368.308594 159.78125 369.140625 162.894531 369.613281 L 163.84375 367.371094 L 170.042969 370.003906 C 175.101562 369.792969 180.121094 368.519531 184.820312 366.097656 L 184.746094 366.066406 L 188.402344 357.429688 L 193.660156 359.660156 C 195.964844 357.355469 197.960938 354.777344 199.554688 351.980469 L 192.074219 348.792969 L 195.730469 340.160156 L 203.097656 343.289062 C 203.945312 340.191406 204.429688 336.972656 204.496094 333.695312 L 199.390625 331.527344 L 203.050781 322.894531 Z M 175.871094 290.96875 L 184.488281 294.636719 L 180.828125 303.265625 L 172.207031 299.601562 Z M 177.167969 311.90625 L 173.507812 320.535156 L 164.886719 316.875 L 168.546875 308.242188 Z M 158.621094 283.640625 L 167.242188 287.304688 L 163.578125 295.941406 L 154.957031 292.277344 Z M 151.300781 300.90625 L 159.921875 304.574219 L 156.265625 313.207031 L 147.644531 309.542969 Z M 134.054688 293.582031 L 142.671875 297.25 L 139.015625 305.875 L 130.394531 302.210938 Z M 123.078125 319.488281 L 126.734375 310.847656 L 135.359375 314.511719 L 131.695312 323.152344 Z M 141.621094 347.742188 L 133 344.085938 L 136.65625 335.449219 L 145.28125 339.113281 Z M 140.316406 326.8125 L 143.980469 318.175781 L 152.605469 321.835938 L 148.941406 330.476562 Z M 158.863281 355.074219 L 150.246094 351.410156 L 153.902344 342.777344 L 162.523438 346.449219 Z M 157.5625 334.140625 L 161.222656 325.5 L 169.84375 329.167969 L 166.1875 337.808594 Z M 176.113281 362.410156 L 167.488281 358.746094 L 171.148438 350.113281 L 179.773438 353.777344 Z M 183.4375 345.132812 L 174.816406 341.472656 L 178.476562 332.835938 L 187.097656 336.5 Z M 190.753906 327.867188 L 182.132812 324.203125 L 185.792969 315.574219 L 194.414062 319.234375 Z M 190.753906 327.867188 " fill-opacity="1" fill-rule="nonzero"/><g clip-path="url(#4a2d06ac06)"><path fill="#000000" d="M 479.210938 181.710938 C 477.65625 181.710938 476.394531 180.449219 476.394531 178.894531 C 476.394531 178.894531 476.394531 131.070312 476.394531 131.070312 C 476.394531 126.402344 472.609375 122.617188 467.941406 122.617188 L 439.769531 122.617188 C 435.101562 122.617188 431.316406 126.402344 431.316406 131.070312 L 431.316406 178.894531 C 431.316406 180.449219 430.054688 181.710938 428.5 181.710938 C 428.5 181.710938 380.675781 181.710938 380.675781 181.710938 C 376.007812 181.710938 372.222656 185.496094 372.222656 190.164062 L 372.222656 218.335938 C 372.222656 223.003906 376.007812 226.789062 380.675781 226.789062 L 428.5 226.789062 C 430.054688 226.789062 431.316406 228.050781 431.316406 229.605469 C 431.316406 229.605469 431.316406 277.429688 431.316406 277.429688 C 431.316406 282.097656 435.101562 285.882812 439.769531 285.882812 L 467.941406 285.882812 C 472.609375 285.882812 476.394531 282.097656 476.394531 277.429688 L 476.394531 229.605469 C 476.394531 228.050781 477.65625 226.789062 479.210938 226.789062 C 479.210938 226.789062 527.035156 226.789062 527.035156 226.789062 C 531.703125 226.789062 535.488281 223.003906 535.488281 218.335938 L 535.488281 190.164062 C 535.488281 185.496094 531.703125 181.710938 527.035156 181.710938 Z M 479.210938 181.710938 " fill-opacity="1" fill-rule="evenodd"/></g><g clip-path="url(#cf48622942)"><path fill="#5c913b" d="M 637.234375 253.402344 C 636.007812 238.769531 646.824219 232.515625 646.824219 232.515625 C 632.683594 233.015625 625.195312 245.023438 625.195312 245.023438 C 621.871094 239.269531 629.375 227.265625 634.78125 224.136719 C 620.644531 224.636719 618.558594 233.519531 618.558594 233.519531 C 611.917969 222.007812 614.007812 213.132812 614.007812 213.132812 C 609.054688 215.996094 606.199219 222.484375 604.546875 228.675781 L 594.300781 216.859375 C 593.285156 221.476562 594.992188 230.90625 596.832031 238.804688 C 583.332031 230.882812 570.742188 238.140625 570.742188 238.140625 C 588.199219 243.398438 594.832031 254.90625 594.832031 254.90625 C 594.832031 254.90625 577.382812 249.652344 569.875 261.65625 C 581.355469 261.25 589.765625 263.867188 595.757812 267.101562 C 590.617188 268.378906 581.859375 266.058594 576.511719 273.167969 C 576.511719 273.167969 590.644531 272.667969 593.53125 277.835938 C 583.929688 280.554688 577.730469 287.800781 577.730469 287.800781 C 597.273438 284.179688 618.050781 295.1875 618.050781 295.1875 L 645.097656 279.554688 C 640.546875 259.167969 656.773438 249.785156 656.773438 249.785156 C 644.734375 241.398438 637.234375 253.402344 637.234375 253.402344 Z M 637.234375 253.402344 " fill-opacity="1" fill-rule="nonzero"/></g><path fill="#ffac33" d="M 687.261719 312.03125 C 698.257812 331.097656 692.644531 354.957031 674.722656 365.316406 C 656.800781 375.679688 633.355469 368.621094 622.367188 349.554688 L 615.34375 337.371094 C 604.347656 318.296875 609.964844 294.445312 627.882812 284.085938 C 645.804688 273.726562 669.246094 280.78125 680.238281 299.851562 Z M 687.261719 312.03125 " fill-opacity="1" fill-rule="nonzero"/><path fill="#ffcc4d" d="M 691.6875 323.023438 C 690.765625 319.269531 689.300781 315.566406 687.261719 312.03125 L 686.4375 310.601562 L 686.4375 310.605469 L 677.816406 306.941406 L 680.574219 300.429688 L 680.242188 299.851562 C 671.292969 284.316406 654.078125 276.761719 638.316406 280.085938 L 634.699219 288.609375 L 626.375 285.070312 C 611.878906 294.460938 606.1875 313.035156 611.957031 329.890625 L 616.402344 331.78125 L 614.628906 335.96875 C 614.875 336.433594 615.082031 336.90625 615.351562 337.363281 L 622.375 349.546875 C 625.402344 354.796875 629.402344 359.105469 633.945312 362.417969 L 634.957031 360.039062 L 643.578125 363.703125 L 642.148438 367.082031 C 645.085938 368.308594 648.144531 369.140625 651.257812 369.613281 L 652.207031 367.371094 L 658.40625 370.003906 C 663.464844 369.792969 668.484375 368.519531 673.183594 366.097656 L 673.109375 366.066406 L 676.765625 357.429688 L 682.023438 359.660156 C 684.328125 357.355469 686.324219 354.777344 687.917969 351.980469 L 680.4375 348.792969 L 684.09375 340.160156 L 691.464844 343.289062 C 692.308594 340.191406 692.792969 336.972656 692.859375 333.695312 L 687.753906 331.527344 L 691.414062 322.894531 Z M 664.234375 290.96875 L 672.851562 294.636719 L 669.191406 303.265625 L 660.570312 299.601562 Z M 665.53125 311.90625 L 661.875 320.535156 L 653.25 316.875 L 656.910156 308.242188 Z M 646.984375 283.640625 L 655.605469 287.304688 L 651.941406 295.941406 L 643.320312 292.277344 Z M 639.664062 300.90625 L 648.285156 304.574219 L 644.628906 313.207031 L 636.007812 309.542969 Z M 622.417969 293.582031 L 631.035156 297.25 L 627.378906 305.875 L 618.757812 302.210938 Z M 611.441406 319.488281 L 615.097656 310.847656 L 623.722656 314.511719 L 620.058594 323.152344 Z M 629.984375 347.742188 L 621.363281 344.085938 L 625.023438 335.449219 L 633.644531 339.113281 Z M 628.679688 326.8125 L 632.34375 318.175781 L 640.96875 321.835938 L 637.304688 330.476562 Z M 647.226562 355.074219 L 638.609375 351.410156 L 642.265625 342.777344 L 650.886719 346.449219 Z M 645.925781 334.140625 L 649.585938 325.5 L 658.210938 329.167969 L 654.550781 337.808594 Z M 664.476562 362.410156 L 655.851562 358.746094 L 659.511719 350.113281 L 668.136719 353.777344 Z M 671.800781 345.132812 L 663.179688 341.472656 L 666.839844 332.835938 L 675.460938 336.5 Z M 679.117188 327.867188 L 670.496094 324.203125 L 674.15625 315.574219 L 682.777344 319.234375 Z M 679.117188 327.867188 " fill-opacity="1" fill-rule="nonzero"/><g clip-path="url(#1e9e0b9d7b)"><path fill="#5c913b" d="M 636.484375 73.265625 C 635.257812 58.628906 646.074219 52.375 646.074219 52.375 C 631.9375 52.875 624.445312 64.882812 624.445312 64.882812 C 621.121094 59.128906 628.625 47.128906 634.03125 44 C 619.898438 44.5 617.808594 53.378906 617.808594 53.378906 C 611.167969 41.871094 613.257812 32.992188 613.257812 32.992188 C 608.304688 35.855469 605.449219 42.34375 603.796875 48.535156 L 593.550781 36.71875 C 592.535156 41.339844 594.246094 50.765625 596.082031 58.664062 C 582.582031 50.742188 569.992188 58 569.992188 58 C 587.453125 63.257812 594.082031 74.765625 594.082031 74.765625 C 594.082031 74.765625 576.632812 69.511719 569.128906 81.519531 C 580.605469 81.109375 589.015625 83.726562 595.007812 86.960938 C 589.867188 88.242188 581.109375 85.917969 575.761719 93.027344 C 575.761719 93.027344 589.894531 92.527344 592.78125 97.699219 C 583.183594 100.414062 576.980469 107.660156 576.980469 107.660156 C 596.523438 104.039062 617.300781 115.046875 617.300781 115.046875 L 644.347656 99.414062 C 639.796875 79.027344 656.023438 69.644531 656.023438 69.644531 C 643.984375 61.257812 636.484375 73.265625 636.484375 73.265625 Z M 636.484375 73.265625 " fill-opacity="1" fill-rule="nonzero"/></g><path fill="#ffac33" d="M 686.511719 131.890625 C 697.507812 150.960938 691.894531 174.816406 673.972656 185.179688 C 656.050781 195.539062 632.609375 188.480469 621.617188 169.414062 L 614.59375 157.230469 C 603.597656 138.15625 609.214844 114.308594 627.132812 103.945312 C 645.054688 93.585938 668.496094 100.640625 679.488281 119.710938 Z M 686.511719 131.890625 " fill-opacity="1" fill-rule="nonzero"/><path fill="#ffcc4d" d="M 690.9375 142.882812 C 690.015625 139.128906 688.550781 135.425781 686.511719 131.890625 L 685.6875 130.460938 L 685.6875 130.464844 L 677.066406 126.800781 L 679.824219 120.289062 L 679.492188 119.710938 C 670.542969 104.175781 653.328125 96.621094 637.566406 99.945312 L 633.953125 108.46875 L 625.625 104.929688 C 611.128906 114.320312 605.441406 132.894531 611.207031 149.75 L 615.652344 151.640625 L 613.882812 155.828125 C 614.125 156.292969 614.332031 156.765625 614.601562 157.222656 L 621.625 169.40625 C 624.652344 174.660156 628.652344 178.964844 633.195312 182.28125 L 634.207031 179.898438 L 642.832031 183.5625 L 641.398438 186.945312 C 644.335938 188.171875 647.394531 189.003906 650.507812 189.476562 L 651.457031 187.230469 L 657.660156 189.863281 C 662.714844 189.652344 667.734375 188.378906 672.433594 185.957031 L 672.359375 185.925781 L 676.019531 177.292969 L 681.273438 179.523438 C 683.582031 177.21875 685.574219 174.636719 687.167969 171.839844 L 679.6875 168.652344 L 683.347656 160.019531 L 690.714844 163.148438 C 691.558594 160.050781 692.042969 156.832031 692.109375 153.558594 L 687.003906 151.390625 L 690.664062 142.753906 Z M 663.484375 110.828125 L 672.101562 114.496094 L 668.441406 123.128906 L 659.820312 119.464844 Z M 664.785156 131.765625 L 661.125 140.394531 L 652.5 136.734375 L 656.160156 128.101562 Z M 646.234375 103.5 L 654.855469 107.164062 L 651.191406 115.804688 L 642.570312 112.140625 Z M 638.914062 120.769531 L 647.539062 124.433594 L 643.878906 133.066406 L 635.257812 129.402344 Z M 621.667969 113.445312 L 630.289062 117.109375 L 626.628906 125.734375 L 618.007812 122.070312 Z M 610.691406 139.347656 L 614.351562 130.707031 L 622.972656 134.371094 L 619.308594 143.011719 Z M 629.234375 167.605469 L 620.613281 163.945312 L 624.273438 155.308594 L 632.894531 158.976562 Z M 627.933594 146.671875 L 631.59375 138.039062 L 640.21875 141.695312 L 636.554688 150.335938 Z M 646.476562 174.933594 L 637.859375 171.269531 L 641.519531 162.640625 L 650.136719 166.308594 Z M 645.175781 154 L 648.835938 145.363281 L 657.460938 149.03125 L 653.800781 157.667969 Z M 663.726562 182.269531 L 655.105469 178.605469 L 658.761719 169.972656 L 667.386719 173.636719 Z M 671.050781 164.992188 L 662.433594 161.332031 L 666.089844 152.695312 L 674.710938 156.359375 Z M 678.371094 147.730469 L 669.746094 144.066406 L 673.40625 135.433594 L 682.027344 139.09375 Z M 678.371094 147.730469 " fill-opacity="1" fill-rule="nonzero"/></svg>