<svg width="72" height="102" viewBox="0 0 72 102" fill="none" xmlns="http://www.w3.org/2000/svg">
<g id="Group">
<path id="Vector" d="M35.8164 52.8543C51.1249 52.8543 63.5369 41.0225 63.5369 26.4272C63.5369 11.836 51.1249 0 35.8164 0C20.5058 0 8.09609 11.836 8.09609 26.4272C8.09609 41.0225 20.5058 52.8543 35.8164 52.8543Z" fill="black"/>
<path id="Vector_2" d="M71.3174 78.3137C70.0798 71.2466 63.794 61.4779 59.2899 56.9046C58.0718 55.6671 55.9571 56.1819 55.2139 56.6204C49.563 59.9417 42.9294 61.8795 35.8162 61.8795C28.7032 61.8795 22.0696 59.9417 16.4187 56.6204C15.6757 56.1819 13.5608 55.6671 12.3424 56.9046C7.83883 61.4779 1.553 71.2466 0.315186 78.3137C-2.72595 95.7135 16.7731 102 35.8164 102C54.8597 102 74.3588 95.7135 71.3174 78.3137Z" fill="black"/>
</g>
</svg>
