<svg width="53" height="56" viewBox="0 0 53 56" fill="none" xmlns="http://www.w3.org/2000/svg">
<g id="list-ordered-svgrepo-com 1">
<g id="Group 8">
<path id="Vector" d="M20.7916 4H47.2917V11H20.7916V4Z" fill="black"/>
<path id="Vector_2" d="M20.7916 18H47.2917V25H20.7916V18Z" fill="black"/>
<path id="Vector_3" d="M47.2917 32H20.7916V39H47.2917V32Z" fill="black"/>
<path id="Vector_4" d="M20.7916 46H47.2917V53H20.7916V46Z" fill="black"/>
<path id="Vector_5" d="M8.49744 38.125H0.916626V32H8.49744C11.8571 32 14.5807 34.8777 14.5807 38.4274C14.5807 40.1925 13.8938 41.8798 12.6812 43.0936L8.90362 46.875H14.1666V53H0.916626V46.4326L8.6944 38.6472C8.75147 38.5902 8.7838 38.5107 8.7838 38.4274C8.7838 38.2604 8.65561 38.125 8.49744 38.125Z" fill="black"/>
<path id="Vector_6" d="M5.41495 4.4375L0 6.34465L1.83315 12.1554L4.64314 11.1657V25H10.44V4.4375H5.41495Z" fill="black"/>
</g>
</g>
</svg>
