<svg width="32" height="6" viewBox="0 0 32 6" fill="none" xmlns="http://www.w3.org/2000/svg">
<path id="Vector" d="M31.463 2.98013C31.463 3.7709 31.1888 4.52927 30.7008 5.08843C30.2128 5.64758 29.551 5.96171 28.8609 5.96171H2.68317C2.33481 5.97415 1.98781 5.90628 1.66277 5.76211C1.33774 5.61794 1.04129 5.40042 0.791028 5.12246C0.540765 4.8445 0.341787 4.51177 0.205903 4.144C0.0700197 3.77624 0 3.38094 0 2.98158C0 2.58221 0.0700197 2.18692 0.205903 1.81916C0.341787 1.45139 0.540765 1.11865 0.791028 0.840695C1.04129 0.562734 1.33774 0.345217 1.66277 0.20105C1.98781 0.0568829 2.33481 -0.0109948 2.68317 0.00144744H28.8659C29.5556 0.00221468 30.2168 0.316683 30.7042 0.875755C31.1917 1.43483 31.4655 2.19276 31.4655 2.98303L31.463 2.98013Z" fill="black"/>
</svg>
